Patient4_TMGait_0pt8_01_right_16_EMG.mot
version=1
nRows=30
nColumns=33
inDegrees=no
endheader
time	1LAddLong	2LGlutMax	3LGlutMed	4LIliopsoas	5LSemiMemb	6LBicFemLong	7LRecFem	8LVastMed	9LVastLat	10LGasMed	11LTibAnt	12lTibPost	13LPeroneusLong	14LSol	15LExtDigLong	16LFlexDigLong	17RAddLong	18RGlutMax	19RGlutMed	20RIliopsoas	21RSemiMemb	22RBicFemLong	23RRecFem	24RVastMed	25RVastLat	26RGasMed	27RTibAnt	28RTibPost	29RPeroneusLong	30RSol	31RExtDigLong	32RFlexDigLong
18.51	-0.005188	-0.41046	0.001526	-0.030518	0.007324	0.14618	-0.027161	0.007629	0.025482	0.044708	0.090942	-0.011292	-0.007019	0.049286	0.12466	0.006866	-0.01358	0.30212	0.029144	-0.058441	0.065002	-0.10284	-0.1796	0.037079	0.060272	0.053253	0.017242	-0.043488	0.42801	-0.006714	0.001068	-0.001526
18.511	-0.016479	-0.33234	0.02121	-0.033264	0.007935	0.13351	0.020752	-0.003967	0.10468	0.054626	0.17319	-0.018158	-0.048065	0.049896	-0.034485	0.012054	-0.032043	0.28427	-0.03067	-0.037231	0.074921	-0.16769	-0.1741	0.026855	0.044403	0.045166	-0.016632	0.004883	-0.056305	-0.2124	0.000458	0.013733
18.512	-0.011902	-0.2739	0.014648	0.003967	0.017395	0.038605	-0.000305	-0.002441	0.1503	0.036163	0.20645	-0.013428	-0.020905	0.083923	-0.099945	0.014496	-0.019989	0.28458	-0.010834	-0.015564	0.067444	-0.2095	-0.16312	0.003967	0.046844	0.051117	-0.040131	-0.10788	-0.49759	-0.68588	-0.003662	0.00946
18.513	-0.016632	-0.21484	0.001221	0.01709	-0.033875	0.012207	-0.029907	0.00885	0.15869	0.029907	0.23605	-0.007782	-0.02121	0.10162	0.36438	0.027008	-0.008545	0.25314	-0.001068	-0.047455	0.045166	-0.18097	-0.11902	0.04776	0.033264	0.033722	-0.067291	-0.070343	-0.66299	-0.91614	-0.003662	0.002136
18.514	0.000305	-0.21378	0.001221	0.056458	-0.1091	-0.039368	0.003815	0.005798	0.20447	0.0354	0.30365	-0.007935	-0.006409	0.054169	0.4454	0.028534	-0.012817	0.21042	0.011902	-0.051117	0.031128	-0.11063	-0.11688	-0.012665	0.003815	0.00946	-0.056915	-0.47318	-0.65857	-0.59479	-0.00351	-0.003357
18.515	0.00473	-0.21973	0.011749	0.028839	-0.13947	-0.098724	0.010071	0.01358	0.31097	0.00946	-0.015106	-0.010071	0.023346	0.03479	0.13565	0.029602	-0.037231	0.22812	0.023956	-0.025482	0.026245	-0.058289	-0.10635	0.018311	0.012665	-0.050964	0.026703	-0.29007	-0.51987	-0.099792	-0.001526	-0.013428
18.516	0.007782	-0.16357	0.018768	0.007477	-0.121	-0.10483	0.020905	0.010681	0.46051	-0.005798	-0.24994	-0.003662	0.14313	0.048676	0.042877	0.015869	-0.026703	0.27939	0.034485	-0.016785	0.014343	0.008392	-0.066071	-0.016937	0.00061	-0.13916	0.085907	-0.40527	-0.57587	-0.26276	-0.002747	-0.046234
18.517	0.019989	-0.12024	-0.007172	0.002441	-0.005493	-0.11917	-0.00061	0.004883	0.53192	-0.037689	-0.21591	0.007935	0.21927	0.092316	-0.15839	0.015106	-0.006409	0.29907	0.035248	0.056305	0.006256	0.1149	-0.037537	-0.050049	0.006256	-0.19073	0.085602	0.29053	0.14862	-0.72067	-0.001831	-0.055847
18.518	0.031891	-0.14282	0.0383	0.016632	0.026855	-0.15686	0.009003	0.006104	0.4686	-0.02533	-0.055389	0.000153	0.159	0.046539	-0.33814	0.019989	0.018921	0.2449	0.071716	0.045166	0.016174	0.20859	-0.049744	-0.053711	-0.012665	-0.16296	0.06073	0.40375	0.13504	-0.89447	0.002136	-0.040894
18.519	0.034485	-0.073395	0.03418	0.005188	0.079956	-0.21759	-0.044708	0.001678	0.37003	0.017548	-0.046997	0.004578	0.090637	-0.028687	-0.28656	0.007629	0.035553	0.22171	0.086975	-0.003357	0.018921	0.11231	-0.032654	-0.049591	-0.018005	-0.083313	0.010986	0.62927	0.096283	-0.69748	-0.000916	-0.024872
18.52	0.048676	-0.012512	0.020752	0.008087	0.044098	-0.20248	-0.042725	-0.005798	0.21072	0.035095	-0.059357	0.025635	0.07019	-0.096741	-0.4068	0.000458	0.052185	0.24719	0.14435	-0.018158	0.007019	0.045776	-0.051575	-0.051727	-0.013123	0.04715	-0.059204	0.13947	0.27466	0.4068	-0.003357	-0.016174
18.521	0.043793	0.026093	0.019836	0.019226	0.053406	-0.096283	-0.068817	-0.009155	-0.057373	0.039063	-0.035248	0.019379	0.038452	-0.14404	0.08194	0.005035	0.068207	0.2623	0.14023	-0.067596	0.029907	0.062714	-0.088043	-0.030365	0.011902	0.11124	-0.080719	0.18906	-0.25635	0.44556	-0.003204	-0.01236
18.522	0.035095	0.0177	0.001678	0.005493	0.075073	-0.027161	-0.17029	-0.004425	-0.09552	0.011902	-0.041656	0.022888	0.15717	-0.093231	-0.056458	0.005035	0.11459	0.33234	0.17792	0.042267	0.014038	0.045319	-0.080719	-0.005341	0.011902	0.10086	-0.03891	0.044556	-0.40695	-0.32394	-0.003662	-0.025482
18.523	0.016174	-0.001831	-0.025177	-0.012512	0.048523	0.014343	-0.16052	-0.012817	-0.15686	0.010071	-0.028534	0.026245	0.1416	-0.068512	-0.12177	0.01358	0.13534	0.38269	0.18402	0.10666	0.04364	-0.029907	-0.090179	-0.012665	0.015564	0.049591	0.063934	-0.78598	-0.24262	-0.48248	-0.002136	-0.022736
18.524	0.014191	0.007019	-0.034027	-0.019379	0.022736	0.032654	-0.04715	-0.003204	-0.087891	-0.004425	-0.006714	0.032349	0.22537	-0.053253	-0.16968	0.010986	0.11871	0.37018	0.19241	0.010223	0.093689	-0.10239	-0.076904	-0.004883	0.020142	0.016174	0.10635	-0.075378	-0.014496	0.33676	-0.001221	-0.02594
18.525	-0.002289	-0.023651	-0.057678	-0.011902	0.027924	0.098114	0.065613	0.011902	-0.049744	-0.005341	-0.005188	0.029755	0.043335	-0.020599	-0.086365	0.002136	0.093231	0.34943	0.20203	-0.04364	0.13138	-0.081482	-0.086975	-0.013428	0.007935	0.019684	0.015411	0.35873	0.74371	1.2131	-0.004578	-0.014801
18.526	-0.014648	-0.061493	-0.059814	0.000153	0.000916	0.088501	0.07019	0.015411	-0.009766	0.004425	-0.002594	0.03006	-0.12405	-0.04776	-0.048523	-0.013885	0.060883	0.33112	0.20615	-0.10452	0.09491	-0.000153	-0.065308	-0.001678	0.025635	0.031738	-0.10254	0.61447	0.80124	1.0089	-0.000305	-0.006561
18.527	-0.017853	-0.10498	-0.049591	0.011292	-0.030823	0.074005	0.002594	0.025787	-0.072632	0.010834	-0.027618	0.0354	0.026093	-0.054779	-0.012665	-0.016479	0.015106	0.35858	0.17807	-0.17319	-0.057068	0.059967	-0.090179	0.044098	0.028381	0.024261	-0.05127	0.25955	0.2272	0.88501	-0.005035	0.002594
18.528	-0.00473	-0.089264	-0.039368	0.010376	-0.024872	0.039063	-0.006866	0.028381	-0.17914	0.041199	0.027771	0.035553	0.098572	-0.043793	0.018005	-0.010223	-0.021057	0.32974	0.18997	-0.11612	-0.068359	-0.050201	-0.094452	0.046997	0.021057	-0.005951	-0.00885	-0.014343	0.30319	0.39322	-0.000153	-0.001221
18.529	-0.001831	-0.046387	-0.020294	-0.004272	0.023651	0.001526	0.013733	0.022125	-0.23972	0.039215	0.040588	0.038147	0.028381	0.02533	0.11566	-0.023193	-0.008545	0.32333	0.19012	-0.022888	-0.02594	-0.18616	-0.10178	0.028381	0.005646	-0.10819	0.032806	0.021057	0.21957	-0.17197	0.000763	0.005341
18.53	-0.020447	-0.008392	-0.019684	-0.023499	0.032043	0.070953	0.075684	0.024719	-0.24078	0.028992	0.00412	0.037079	0.086975	-0.019836	0.1033	-0.040588	0.005188	0.36514	0.15106	0.11887	-0.067139	-0.24384	-0.075531	-0.011444	0.00824	-0.077057	0.072937	-0.27206	0.066071	-0.6282	0.000305	0.001373
18.531	-0.032959	0.061646	-0.011597	-0.010529	-0.060272	0.061035	0.071869	0.037537	-0.083923	0.019226	-0.024719	0.028839	0.076599	-0.013733	0.075684	-0.045776	0.003662	0.30746	0.19623	0.22156	-0.047455	-0.28214	-0.086365	0.013885	0.026093	-0.017395	0.085602	0.1622	0.033264	-0.71426	-0.000916	-0.003662
18.532	-0.095978	0.054169	0.006866	0.001373	-0.14435	0.028534	0.02594	0.02655	0.050812	0.025482	-0.007935	0.038605	0.016937	-0.027313	0.047913	-0.053558	0.005035	0.30624	0.2095	0.16785	0.036774	-0.34546	-0.086365	0.028839	0.019836	0.052795	0.006866	0.096283	-0.088348	-0.32593	0.001526	0.003815
18.533	-0.005188	0.032349	0.005493	0.018616	-0.28046	0.077667	-0.015717	0.007172	0.087891	0.032654	0.003662	0.033875	0.11978	0.001831	0.05249	-0.062103	-0.013275	0.27725	0.22964	0.11673	0.017395	-0.37994	-0.037079	0.042419	0.028534	0.074005	-0.033264	0.033722	-0.32913	0.26733	0.000458	-0.004578
18.534	-0.024719	0.056152	0.045624	0.021057	-0.29053	0.093384	0.003204	-0.014648	0.084839	0.01709	-0.019836	0.035553	0.4306	0.024719	0.060272	-0.064545	-0.030823	0.22766	0.23193	0.11429	-0.011902	-0.15533	-0.040588	0.073547	0.026855	0.063324	-0.069427	-0.12817	-0.43381	0.08194	-0.003662	-0.014648
18.535	-0.008698	0.099945	0.030823	0.012054	-0.067749	0.037537	0.058136	-0.034027	0.12283	-0.001221	-0.009613	0.041046	0.20508	0.058899	0.068817	-0.088654	-0.046997	0.2214	0.21606	0.16754	-0.030823	0.054474	-0.007782	0.001831	0.01709	-0.006714	-0.074921	-0.76675	-0.43671	-0.55206	0	-0.010223
18.536	0.015411	0.12726	0.036926	0.009155	0.112	0.06012	0.057068	-0.022888	0.022888	0.010071	0.00885	0.04364	-0.06546	0.088501	0.078125	-0.07782	-0.09964	0.2504	0.28107	0.16083	-0.042572	0.11093	0.036316	-0.019989	0.001373	-0.031281	-0.03067	-0.40955	-0.42923	-0.53696	-0.001831	-0.019226
18.537	0.019379	0.15533	0.036163	0.003357	0.18936	0.12619	0.028381	0.001221	-0.037842	0.020294	0.007324	0.03952	-0.24338	0.10254	0.059662	-0.10757	-0.093079	0.17929	0.19241	0.039825	0.011902	0.19211	0.021973	0.030823	0.039368	0.016785	-0.056915	0.076141	-0.28107	-0.31982	-0.002899	-0.019836
18.538	0.011597	0.103	0.041199	-0.013428	0.14221	0.18539	-0.014191	0.012665	-0.066376	0.023956	0.001068	0.036163	0.18768	0.0914	0.006409	-0.11337	-0.081177	0.12863	0.29221	-0.071869	0.017853	0.21591	0.029602	0.056	0.02655	-0.020599	-0.041351	0.30884	-0.54108	0.27649	-0.001831	-0.02533
18.539	0.019073	0.10239	0.040283	0	0.10529	0.13412	-0.039978	0.025482	-0.097351	-0.021057	0.012665	0.032806	-0.23148	0.053711	-0.027313	-0.11597	-0.033722	0.14908	0.3125	-0.098419	0.020294	0.22553	-0.020142	0.054321	0.046997	-0.056763	-0.014954	-0.19119	0.011902	0.9314	-0.001526	-0.026245
